# File created by Blade
# Date/Time:  Tue Sep 30 19:31:19 2014
#---------------------------------------------------------
:version 1.10
:name HOM
:units
  mass 1.0
  length 1.000000
  angle deg
:documentation
     Acclaim Skeleton File
:root
   axis xyz
   order TX TY TZ RX RY RZ
   position 0.000000 0.000000 0.000000
   orientation 0 0 0
:bonedata
   begin
      id 1
      name Spine_dum
      direction 0.000000 1.000000 0.000000
      length 3.241213
      axis 0.0 0.0 0.0 xyz
   end
   begin
      id 2
      name LeftUpLeg_dum
      direction 1.000000 0.000000 0.000000
      length 3.434019
      axis 0.0 0.0 0.0 xyz
   end
   begin
      id 3
      name RightUpLeg_dum
      direction -1.000000 0.000000 0.000000
      length 3.434019
      axis 0.0 0.0 0.0 xyz
   end
   begin
      id 4
      name Spine
      direction 0.000000 1.000000 0.000000
      length 0.000000
      axis 0.0 0.0 0.0 xyz
      dof rx ry rz
   end
   begin
      id 5
      name Spine_dum1
      direction 0.000000 1.000000 0.000000
      length 18.382958
      axis 0.0 0.0 0.0 xyz
   end
   begin
      id 6
      name Spine_dum2
      direction 0.000000 1.000000 0.000000
      length 12.828261
      axis 0.0 0.0 0.0 xyz
   end
   begin
      id 7
      name Spine_dum3
      direction 0.000000 1.000000 0.000000
      length 12.828261
      axis 0.0 0.0 0.0 xyz
   end
   begin
      id 8
      name Head
      direction 0.000000 1.000000 0.000000
      length 4.527550
      axis 0.0 0.0 0.0 xyz
      dof rx ry rz
   end
   begin
      id 9
      name LeftShoulder
      direction 1.000000 0.000000 0.000000
      length 7.748055
      axis 0.0 0.0 -90.0 xyz
      dof rx ry rz
   end
   begin
      id 10
      name LeftArm
      direction 1.000000 0.000000 0.000000
      length 10.635614
      axis 0.0 0.0 -90.0 xyz
      dof rx ry rz
   end
   begin
      id 11
      name LeftForeArm
      direction 1.000000 0.000000 0.000000
      length 8.346755
      axis 0.0 0.0 -90.0 xyz
      dof ry rz rx
   end
   begin
      id 12
      name LeftHand
      direction 0.000000 0.000000 0.000000
      length 0.000000
      axis 0.0 0.0 -90.0 xyz
      dof rx ry rz
   end
   begin
      id 13
      name LeftHand_dum1
      direction 0.000000 0.000000 0.000000
      length 0.000000
      axis 0.0 0.0 -90.0 xyz
   end
   begin
      id 14
      name LeftHand_dum2
      direction 1.000000 0.000000 0.000000
      length 3.937000
      axis 0.0 0.0 -90.0 xyz
   end
   begin
      id 15
      name LeftHandThumb1
      direction 0.000000 0.000000 1.000000
      length 3.937000
      axis 0.0 0.0 -90.0 xyz
      dof rx rz ry
   end
   begin
      id 16
      name RightShoulder
      direction -1.000000 0.000000 0.000000
      length 7.748055
      axis 0.0 0.0 90.0 xyz
      dof rx ry rz
   end
   begin
      id 17
      name RightArm
      direction -1.000000 0.000000 0.000000
      length 10.635614
      axis 0.0 0.0 90.0 xyz
      dof rx ry rz
   end
   begin
      id 18
      name RightForeArm
      direction -1.000000 0.000000 0.000000
      length 8.346755
      axis 0.0 0.0 90.0 xyz
      dof ry rz rx
   end
   begin
      id 19
      name RightHand
      direction 0.000000 0.000000 0.000000
      length 0.000000
      axis 0.0 0.0 90.0 xyz
      dof rx ry rz
   end
   begin
      id 20
      name RightHand_dum1
      direction 0.000000 0.000000 0.000000
      length 0.000000
      axis 0.0 0.0 90.0 xyz
   end
   begin
      id 21
      name RightHand_dum2
      direction -1.000000 0.000000 0.000000
      length 3.937000
      axis 0.0 0.0 90.0 xyz
   end
   begin
      id 22
      name RightHandThumb1
      direction 0.000000 0.000000 1.000000
      length 3.937000
      axis 0.0 0.0 90.0 xyz
      dof rx rz ry
   end
   begin
      id 23
      name LeftUpLeg
      direction 0.000000 -1.000000 0.000000
      length 15.713025
      axis 0.0 0.0 0.0 xyz
      dof rx ry rz
   end
   begin
      id 24
      name LeftLeg
      direction 0.000000 -1.000000 0.000000
      length 14.435119
      axis 0.0 0.0 0.0 xyz
      dof rx ry rz
   end
   begin
      id 25
      name LeftFoot
      direction 0.000000 -0.258819 0.965926
      length 4.938895
      axis 15.0 0.0 0.0 xyz
      dof rx ry rz
   end
   begin
      id 26
      name LeftToeBase
      direction 0.000000 0.000000 1.000000
      length 2.952750
      axis 0.0 0.0 0.0 xyz
      dof rx ry rz
   end
   begin
      id 27
      name RightUpLeg
      direction 0.000000 -1.000000 0.000000
      length 15.713025
      axis 0.0 0.0 0.0 xyz
      dof rx ry rz
   end
   begin
      id 28
      name RightLeg
      direction 0.000000 -1.000000 0.000000
      length 14.435119
      axis 0.0 0.0 0.0 xyz
      dof rx ry rz
   end
   begin
      id 29
      name RightFoot
      direction 0.000000 -0.258819 0.965926
      length 4.938895
      axis 15.0 0.0 0.0 xyz
      dof rx ry rz
   end
   begin
      id 30
      name RightToeBase
      direction 0.000000 0.000000 1.000000
      length 2.952750
      axis 0.0 0.0 0.0 xyz
      dof rx ry rz
   end
:hierarchy
   begin
      root Spine_dum LeftUpLeg_dum RightUpLeg_dum
      Spine_dum Spine
      LeftUpLeg_dum LeftUpLeg
      RightUpLeg_dum RightUpLeg
      Spine Spine_dum1 Spine_dum2 Spine_dum3
      Spine_dum1 Head
      Spine_dum2 LeftShoulder
      Spine_dum3 RightShoulder
      LeftShoulder LeftArm
      LeftArm LeftForeArm
      LeftForeArm LeftHand
      LeftHand LeftHand_dum1 LeftHand_dum2
      LeftHand_dum1 LeftHandThumb1
      RightShoulder RightArm
      RightArm RightForeArm
      RightForeArm RightHand
      RightHand RightHand_dum1 RightHand_dum2
      RightHand_dum1 RightHandThumb1
      LeftUpLeg LeftLeg
      LeftLeg LeftFoot
      LeftFoot LeftToeBase
      RightUpLeg RightLeg
      RightLeg RightFoot
      RightFoot RightToeBase
   end

# File created by Blade
# Date/Time:  Thu Sep 25 17:54:10 2014
# Frame Rate: 120.000 fps
#------------------------------------------------------
:FULLY-SPECIFIED
:DEGREES
508
root -0.172194 32.544177 -5.123978 30.205426 -0.106076 -0.144202
Spine -33.719216 0.107654 -6.291524
Head 29.070156 -12.258273 0.715675
LeftShoulder -28.292352 52.724718 28.459639
LeftArm 122.678141 -48.881008 -158.825846
LeftForeArm -58.536882 -0.000000 131.313300
LeftHand -13.418052 -0.000000 -9.717830
LeftHandThumb1 -26.253704 0.000000 33.147579
RightShoulder -85.775387 50.072420 -159.484945
RightArm 57.183731 -0.276705 62.173263
RightForeArm 25.981868 -0.000000 132.245509
RightHand 7.703716 -0.000000 5.056902
RightHandThumb1 -24.326973 -0.000000 -32.862282
LeftUpLeg -21.352433 5.035665 -0.135454
LeftLeg -2.676318 -0.000000 0.000000
LeftFoot -4.995843 -1.557713 -2.804409
LeftToeBase 2.729227 -0.000000 -0.000000
RightUpLeg -22.012688 -6.137498 4.314439
RightLeg -2.223764 -0.000000 0.000000
RightFoot -8.330332 -1.174966 11.080777
RightToeBase 15.370024 -0.000000 -0.000000
509
root -0.173316 32.544389 -5.121276 30.209596 -0.103946 -0.141922
Spine -33.729504 0.141646 -6.273863
Head 29.089969 -12.286949 0.798209
LeftShoulder -28.236766 52.689082 28.518881
LeftArm 122.555419 -48.900334 -158.689221
LeftForeArm -58.557859 -0.000000 131.334854
LeftHand -13.389844 -0.000000 -9.679971
LeftHandThumb1 -26.253704 0.000000 33.147579
RightShoulder -85.781416 50.086194 -159.482583
RightArm 57.191019 -0.319030 62.193995
RightForeArm 25.934543 -0.000000 132.209820
RightHand 7.674458 -0.000000 5.119738
RightHandThumb1 -24.326973 -0.000000 -32.862282
LeftUpLeg -21.348196 5.041786 -0.138396
LeftLeg -2.687026 -0.000000 0.000000
LeftFoot -4.984508 -1.558434 -2.780534
LeftToeBase 2.685337 -0.000000 -0.000000
RightUpLeg -22.007446 -6.140249 4.314135
RightLeg -2.230351 -0.000000 0.000000
RightFoot -8.359642 -1.259764 10.980182
RightToeBase 15.158986 -0.000000 -0.000000
510
root -0.174428 32.544543 -5.117691 30.213644 -0.103985 -0.148629
Spine -33.741064 0.189717 -6.249856
Head 29.114631 -12.306583 0.832293
LeftShoulder -28.200250 52.711389 28.582159
LeftArm 122.409523 -48.871761 -158.602900
LeftForeArm -58.553751 -0.000000 131.368860
LeftHand -13.386648 -0.000000 -9.635372
LeftHandThumb1 -26.253704 0.000000 33.147579
RightShoulder -85.774919 50.078893 -159.478214
RightArm 57.183292 -0.359858 62.223097
RightForeArm 25.891962 0.000000 132.182027
RightHand 7.684561 0.000000 5.214929
RightHandThumb1 -24.326973 -0.000000 -32.862282
LeftUpLeg -21.343856 5.059219 -0.135497
LeftLeg -2.692271 -0.000000 0.000000
LeftFoot -4.986861 -1.577579 -2.781712
LeftToeBase 2.693501 -0.000000 -0.000000
RightUpLeg -22.012659 -6.174043 4.338908
RightLeg -2.221126 -0.000000 0.000000
RightFoot -8.347041 -1.216363 10.975366
RightToeBase 15.124456 -0.000000 -0.000000
511
root -0.175309 32.544730 -5.115452 30.220879 -0.099591 -0.142403
Spine -33.750644 0.199182 -6.216116
Head 29.114451 -12.286291 0.892736
LeftShoulder -28.112287 52.647693 28.649887
LeftArm 122.419248 -48.919088 -158.613639
LeftForeArm -58.566221 -0.000000 131.396507
LeftHand -13.385563 -0.000000 -9.672386
LeftHandThumb1 -26.253704 0.000000 33.147579
RightShoulder -85.831600 50.076408 -159.525685
RightArm 57.167815 -0.412981 62.228573
RightForeArm 25.877508 -0.000000 132.169702
RightHand 7.678331 -0.000000 5.197431
RightHandThumb1 -24.326973 -0.000000 -32.862282
LeftUpLeg -21.353069 5.048067 -0.133707
LeftLeg -2.679632 -0.000000 0.000000
LeftFoot -4.990256 -1.581838 -2.818009
LeftToeBase 2.711396 -0.000000 -0.000000
RightUpLeg -22.014218 -6.186839 4.340226
RightLeg -2.223045 -0.000000 0.000000
RightFoot -8.342604 -1.211667 10.943520
RightToeBase 15.100124 -0.000000 -0.000000
512
root -0.175946 32.544438 -5.112368 30.230585 -0.094946 -0.129952
Spine -33.763982 0.212049 -6.192188
Head 29.102860 -12.266405 0.971398
LeftShoulder -28.044418 52.624313 28.721168
LeftArm 122.389955 -48.941560 -158.620279
LeftForeArm -58.568621 -0.000000 131.426999
LeftHand -13.375937 0.000000 -9.676664
LeftHandThumb1 -26.253704 0.000000 33.147579
RightShoulder -85.835344 50.055633 -159.536457
RightArm 57.145824 -0.446764 62.257950
RightForeArm 25.852310 -0.000000 132.190096
RightHand 7.638852 -0.000000 5.203341
RightHandThumb1 -24.326973 -0.000000 -32.862282
LeftUpLeg -21.351447 5.033335 -0.140470
LeftLeg -2.693959 -0.000000 0.000000
LeftFoot -4.972868 -1.566261 -2.809753
LeftToeBase 2.671780 -0.000000 -0.000000
RightUpLeg -21.996141 -6.155333 4.314740
RightLeg -2.265430 -0.000000 0.000000
RightFoot -8.328096 -1.249615 10.979388
RightToeBase 15.058454 -0.000000 -0.000000
